<svg id="Layer_1" data-name="Layer 1" xmlns="http://www.w3.org/2000/svg" viewBox="0 0 693.34 175.14"><defs><style>.cls-1,.cls-3,.cls-4,.cls-7{fill:#fff}.cls-1,.cls-3,.cls-5,.cls-7{stroke:#000}.cls-1{stroke-width:1.84px}.cls-3{stroke-width:1.99px}.cls-5{stroke-width:1.04px}.cls-7{stroke-width:.99px}</style></defs><path d="M176.47 84.7c1.15-3.17 1.53-3.7 2.11-3.7s1 .48 2.11 3.45c1.44 3.64 16.49 43.24 22.34 57.82 3.45 8.53 6.23 10.07 8.25 10.64a12.32 12.32 0 0 0 3.83.58c.58 0 1 .09 1 .57s-.86.77-1.92.77c-1.44 0-8.44 0-15.05-.19-1.82-.1-2.88-.1-2.88-.67 0-.39.29-.58.67-.68.58-.19 1.15-1.05.58-2.58l-8.92-23.59a.84.84 0 0 0-.86-.58h-20.66c-.48 0-.76.29-1 .77l-5.75 17a20.34 20.34 0 0 0-1.34 6.43c0 1.91 2 2.78 3.64 2.78h1c.67 0 1 .19 1 .57 0 .58-.58.77-1.44.77-2.3 0-6.42-.29-7.48-.29s-6.33.29-10.83.29c-1.25 0-1.82-.19-1.82-.77 0-.38.38-.57.86-.57.67 0 2-.1 2.78-.2 4.41-.57 6.33-4.21 8-9zm10 38.35c.48 0 .48-.29.38-.67l-9.1-25.89q-.72-2.16-1.44 0l-8.44 25.89c-.19.48 0 .67.29.67zM226.8 110.11c0-15 0-17.65-.19-20.71-.19-3.27-1-4.8-4.12-5.47a18.14 18.14 0 0 0-3.26-.29c-.38 0-.77-.19-.77-.57 0-.58.48-.77 1.54-.77 4.31 0 10.35.29 10.83.29 1.06 0 8.34-.29 11.32-.29 6 0 12.46.58 17.54 4.22a16.76 16.76 0 0 1 6.62 13c0 7.09-3 14.19-11.6 22.15 7.86 10.07 14.38 18.6 19.94 24.54 5.18 5.47 9.3 6.52 11.7 6.91a22.77 22.77 0 0 0 3.74.29c.48 0 .86.28.86.57 0 .58-.57.77-2.3.77h-6.81c-5.37 0-7.76-.48-10.26-1.82-4.12-2.21-7.48-6.91-12.94-14.1-4-5.27-8.54-11.7-10.45-14.19a1.58 1.58 0 0 0-1.25-.58l-11.79-.19c-.48 0-.67.29-.67.77V127c0 9.21 0 16.78.47 20.81.29 2.78.87 4.89 3.74 5.27a42.9 42.9 0 0 0 4.32.39c.57 0 .77.28.77.57 0 .48-.48.77-1.54.77-5.27 0-11.31-.29-11.79-.29-.1 0-6.14.29-9 .29-1.05 0-1.53-.19-1.53-.77 0-.29.19-.57.77-.57a14.89 14.89 0 0 0 2.87-.39c1.92-.38 2.4-2.49 2.79-5.27.47-4 .47-11.6.47-20.81zm7.68 8.34a1.25 1.25 0 0 0 .67 1.15c1.44.86 5.85 1.53 10.06 1.53a12.48 12.48 0 0 0 7.2-1.82c3.35-2.3 5.85-7.48 5.85-14.77 0-12-6.33-19.17-16.59-19.17a29.58 29.58 0 0 0-6.43.57 1.15 1.15 0 0 0-.76 1.15zM298.39 110.11c0-15 0-17.65-.18-20.71-.18-3.27-.91-4.8-3.92-5.47a16.39 16.39 0 0 0-3.1-.29c-.36 0-.72-.19-.72-.57 0-.58.45-.77 1.45-.77 4.1 0 9.48.29 10 .29.82 0 6.11-.29 8.84-.29 1 0 1.46.19 1.46.77 0 .38-.37.57-.73.57a13.08 13.08 0 0 0-2.28.29c-2.46.48-3.19 2.11-3.37 5.47-.18 3.06-.18 5.75-.18 20.71v5.75h.34c1.55-1.82 18-19.47 21.32-23.2 2.55-2.79 4.92-5.28 4.92-6.91a1.89 1.89 0 0 0-1.19-2c-.45-.19-.82-.39-.82-.77s.46-.67 1.1-.67c1.82 0 4.64.29 6.83.29.45 0 6.46-.29 8.74-.29 1 0 1.37.19 1.37.67s-.18.67-.91.67A12.94 12.94 0 0 0 342.3 85c-3.74 1.73-5.74 4.13-9.84 8.25-2.28 2.3-18.13 18.6-20 21 2.37 2.78 15.84 23.39 19.58 27 7.65 7.48 9.2 9 13.57 10.93a16.21 16.21 0 0 0 5.65 1.25c.64 0 1.18.19 1.18.57s-.45.77-2 .77h-4.65c-2.55 0-4.28 0-6.28-.19-4.83-.48-7.11-2.59-11-5.85-4.1-3.55-17.94-25.51-22.32-31.17h-.45V127c0 9.21 0 16.78.45 20.81.28 2.78.82 4.89 3.56 5.27a30.16 30.16 0 0 0 3.55.39c.55 0 .73.28.73.57 0 .48-.46.77-1.46.77-4.46 0-9.75-.29-10.48-.29s-6 .29-8.74.29c-1 0-1.46-.19-1.46-.77 0-.29.18-.57.73-.57a13.51 13.51 0 0 0 2.73-.39c1.83-.38 2.28-2.49 2.65-5.27.45-4 .45-11.6.45-20.81zM387.53 84.7c1.15-3.17 1.53-3.74 2.11-3.74s1 .48 2.11 3.45c1.44 3.64 16.49 43.24 22.34 57.82 3.45 8.53 6.23 10.07 8.25 10.64a12.32 12.32 0 0 0 3.83.58c.58 0 1 .09 1 .57s-.86.77-1.92.77c-1.44 0-8.44 0-15-.19-1.82-.1-2.88-.1-2.88-.67 0-.39.29-.58.67-.68.58-.19 1.15-1.05.58-2.58l-8.92-23.59a.84.84 0 0 0-.86-.58h-20.71c-.48 0-.76.29-1 .77l-5.75 17a20.34 20.34 0 0 0-1.34 6.43c0 1.91 2 2.78 3.64 2.78h1c.67 0 1 .19 1 .57 0 .58-.57.77-1.44.77-2.3 0-6.42-.29-7.48-.29s-6.33.29-10.83.29c-1.25 0-1.82-.19-1.82-.77 0-.38.38-.57.86-.57.67 0 2-.1 2.78-.2 4.41-.57 6.33-4.21 8.05-9zm10 38.35c.48 0 .48-.29.39-.67l-9.11-25.89q-.72-2.16-1.44 0l-8.44 25.89c-.19.48 0 .67.29.67zM512.19 153.54c-1.34-.67-1.44-1-1.44-3.64 0-4.79.38-8.63.48-10.17.1-1 .29-1.53.77-1.53s.67.29.67 1.06a16.69 16.69 0 0 0 .29 3.54c1.44 7.1 7.76 9.78 14.19 9.78 9.2 0 13.71-6.61 13.71-12.75 0-6.62-2.78-10.45-11-17.26l-4.34-3.57c-10.17-8.34-12.47-14.28-12.47-20.8 0-10.2 7.67-17.2 19.85-17.2a37 37 0 0 1 8.92 1 15.71 15.71 0 0 0 3.35.47c.77 0 1 .2 1 .68s-.38 3.64-.38 10.16c0 1.53-.19 2.21-.67 2.21s-.67-.48-.77-1.25a16.45 16.45 0 0 0-1.25-4.79c-.57-1.06-3.16-5.09-12-5.09-6.62 0-11.79 4.13-11.79 11.13 0 5.46 2.49 8.91 11.69 16.11l2.69 2.1c11.31 8.92 14 14.87 14 22.54a19.86 19.86 0 0 1-8.15 15.91c-4.13 2.88-9.3 4-14.48 4a29.06 29.06 0 0 1-12.87-2.64zM584 84.7c1.15-3.17 1.54-3.74 2.11-3.74s1 .48 2.11 3.45c1.44 3.64 16.49 43.24 22.34 57.82 3.46 8.53 6.24 10.07 8.25 10.64a12.42 12.42 0 0 0 3.84.58c.57 0 1 .09 1 .57s-.86.77-1.91.77c-1.44 0-8.44 0-15.06-.19-1.82-.1-2.87-.1-2.87-.67 0-.39.28-.58.67-.68.57-.19 1.15-1.05.57-2.58l-8.91-23.59a.86.86 0 0 0-.87-.58h-20.65a1 1 0 0 0-1 .77l-5.75 17a20.11 20.11 0 0 0-1.35 6.43c0 1.91 2 2.78 3.64 2.78h1c.68 0 1 .19 1 .57 0 .58-.57.77-1.43.77-2.31 0-6.43-.29-7.48-.29s-6.33.29-10.84.29c-1.25 0-1.82-.19-1.82-.77 0-.38.38-.57.86-.57a27.76 27.76 0 0 0 2.78-.2c4.41-.57 6.33-4.21 8.06-9zm10 38.35c.47 0 .47-.29.38-.67l-9.11-25.89q-.72-2.16-1.44 0l-8.44 25.89c-.19.48 0 .67.29.67zM630.29 153.54c-1.34-.67-1.44-1-1.44-3.64 0-4.79.39-8.63.48-10.17.1-1 .29-1.53.77-1.53s.67.29.67 1.06a16.69 16.69 0 0 0 .29 3.54c1.44 7.1 7.76 9.78 14.19 9.78 9.2 0 13.71-6.61 13.71-12.75 0-6.62-2.78-10.45-11-17.26l-4.34-3.57c-10.17-8.34-12.47-14.28-12.47-20.8C631.15 88 638.82 81 651 81a37 37 0 0 1 8.92 1 15.7 15.7 0 0 0 3.36.47c.76 0 1 .2 1 .68s-.38 3.64-.38 10.16c0 1.53-.19 2.21-.67 2.21s-.67-.48-.77-1.25a16.75 16.75 0 0 0-1.24-4.79c-.58-1.06-3.17-5.09-12-5.09-6.62 0-11.79 4.13-11.79 11.13 0 5.46 2.49 8.91 11.69 16.11l2.69 2.1c11.31 8.92 14 14.87 14 22.54a19.86 19.86 0 0 1-8.15 15.91c-4.13 2.88-9.3 4-14.48 4a29.06 29.06 0 0 1-12.89-2.64zM441.89 141.74c.17 7.87 1 10.36 3.36 11.13a17.06 17.06 0 0 0 4.32.57c.43 0 .69.19.69.58 0 .57-.52.76-1.55.76-4.92 0-8.37-.28-9.15-.28s-4.4.28-8.28.28c-.87 0-1.38-.09-1.38-.76 0-.39.26-.58.69-.58a11.12 11.12 0 0 0 3.53-.57c2.16-.68 2.59-3.46 2.59-12.18l.09-54.94c0-3.74.26-4.8.95-4.8s2.16 2.11 3 3.07c1.29 1.63 14.15 17.07 27.44 32.89 8.54 10.16 18 21.86 20.71 25l-.9-48.68c-.09-6.24-.69-8.35-3.37-9.11a20.26 20.26 0 0 0-4.23-.48c-.6 0-.69-.29-.69-.67 0-.58.69-.68 1.73-.68 3.88 0 8 .29 9 .29s3.8-.29 7.34-.29c.95 0 1.55.1 1.55.68 0 .38-.34.67-.95.67a6.85 6.85 0 0 0-2.07.29c-2.85.67-3.19 2.78-3.19 8.53l-.17 56.19c0 6.32-.18 6.8-.78 6.8s-1.73-1-6.3-6.13c-.95-1-13.37-15-22.52-26-10-12-19.76-24.06-22.52-27.52zM163.19 48.8c0-7.42 0-8.75-.1-10.27s-.47-2.38-2-2.71a8.5 8.5 0 0 0-1.62-.14c-.19 0-.38-.1-.38-.29s.24-.38.76-.38c2.14 0 5 .14 5.47.14S168.56 35 170 35c.52 0 .76.1.76.38s-.19.29-.38.29a6.56 6.56 0 0 0-1.19.14c-1.28.19-1.66 1-1.76 2.71-.09 1.52-.09 2.85-.09 10.27v6.65c0 6.85 1.52 9.8 3.56 11.75a9.33 9.33 0 0 0 7.18 2.61 10 10 0 0 0 7.47-3.42c2.18-2.71 2.75-6.75 2.75-11.65V48.8c0-7.42 0-8.75-.09-10.27s-.48-2.38-2-2.71a8.39 8.39 0 0 0-1.61-.14c-.19 0-.38-.1-.38-.29s.23-.38.76-.38c2.14 0 4.75.14 5 .14s2.56-.14 4-.14c.52 0 .76.1.76.38s-.19.29-.38.29a6.56 6.56 0 0 0-1.19.14c-1.28.28-1.66 1-1.76 2.71-.09 1.52-.09 2.85-.09 10.27v5.08c0 5.14-.57 10.84-4.38 14.22a13.92 13.92 0 0 1-9.79 3.52c-1.62 0-6.42-.19-9.79-3.38-2.33-2.23-4.14-5.56-4.14-12.5zM216.91 64.49c.09 3.89.57 5.13 1.85 5.51a10.4 10.4 0 0 0 2.38.29c.24 0 .38.09.38.28s-.29.38-.86.38c-2.71 0-4.61-.14-5-.14s-2.42.14-4.56.14c-.48 0-.76 0-.76-.38 0-.19.14-.28.38-.28a6.77 6.77 0 0 0 1.95-.29c1.19-.33 1.43-1.71 1.43-6V36.76c0-1.85.15-2.38.53-2.38s1.18 1 1.66 1.53c.71.8 7.8 8.46 15.12 16.3 4.71 5 9.89 10.84 11.41 12.41l-.52-24.15c-.05-3.09-.38-4.14-1.86-4.52a12.5 12.5 0 0 0-2.33-.23c-.33 0-.38-.15-.38-.34s.38-.33 1-.33c2.14 0 4.43.14 4.95.14s2.09-.14 4-.14c.52 0 .86.05.86.33s-.2.34-.53.34a4.25 4.25 0 0 0-1.14.14c-1.57.33-1.76 1.38-1.76 4.23L245 67.91c0 3.14-.1 3.38-.43 3.38s-1-.53-3.47-3.05c-.52-.47-7.37-7.46-12.41-12.88-5.52-6-10.89-11.93-12.41-13.65zM274.86 57.17c0 4.56 0 8.31.24 10.31.14 1.38.43 2.43 1.85 2.62.67.09 1.71.19 2.14.19s.38.14.38.28-.24.38-.76.38c-2.62 0-5.61-.14-5.85-.14s-3.23.14-4.66.14c-.52 0-.76-.09-.76-.38 0-.14.1-.28.38-.28a7.79 7.79 0 0 0 1.43-.19c.95-.19 1.19-1.24 1.38-2.62.24-2 .24-5.75.24-10.31V48.8c0-7.42 0-8.75-.1-10.27s-.57-2.43-1.62-2.66a5.85 5.85 0 0 0-1.47-.19c-.19 0-.38-.1-.38-.29s.24-.38.76-.38c1.57 0 4.56.14 4.8.14s3.23-.14 4.66-.14c.52 0 .76.1.76.38s-.19.29-.38.29a6.56 6.56 0 0 0-1.19.14c-1.28.23-1.66 1-1.76 2.71-.09 1.52-.09 2.85-.09 10.27zM312.32 65.15c2.76-6.37 9.13-23 10.17-26.38a6.83 6.83 0 0 0 .43-1.81 1.16 1.16 0 0 0-.62-1.09 6 6 0 0 0-1.8-.19c-.29 0-.53 0-.53-.29s.29-.38 1-.38c1.9 0 4.09.14 4.66.14.28 0 2.33-.14 3.71-.14.52 0 .81.1.81.33s-.19.34-.58.34a4.33 4.33 0 0 0-2.28.57c-.61.42-1.33 1.23-2.61 4.46-.52 1.34-2.9 7-5.33 12.89-2.9 6.94-5 12.07-6.13 14.41-1.33 2.85-1.52 3.61-2 3.61s-.8-.67-1.71-3l-11.6-29.09c-1-2.67-1.76-3.19-3.42-3.66a7.39 7.39 0 0 0-1.81-.19c-.28 0-.38-.15-.38-.34s.48-.33 1.24-.33c2.28 0 5 .14 5.56.14s2.62-.14 4.42-.14c.86 0 1.29.1 1.29.33s-.15.34-.48.34a5.49 5.49 0 0 0-1.8.23 1 1 0 0 0-.62 1 18.24 18.24 0 0 0 1.28 4zM347.5 48.8c0-7.42 0-8.75-.1-10.27s-.47-2.38-2-2.71a8.5 8.5 0 0 0-1.62-.14c-.19 0-.38-.1-.38-.29s.24-.38.76-.38c1.1 0 2.38 0 3.42.05l1.95.09h10.89a13.53 13.53 0 0 0 2.05-.24c.23 0 .42-.24.66-.24s.19.19.19.43-.24.9-.38 2.23c0 .48-.14 2.57-.24 3.14 0 .24-.14.52-.33.52s-.38-.24-.38-.62a5.28 5.28 0 0 0-.28-1.71c-.34-.76-.81-1.33-3.38-1.61-.81-.1-6-.15-6.51-.15-.19 0-.29.15-.29.48v13.08c0 .33.05.48.29.48.61 0 6.46 0 7.55-.1s1.81-.19 2.24-.66.52-.62.71-.62.24.09.24.38-.24 1.09-.38 2.66c-.09.95-.19 2.71-.19 3s0 .91-.33.91-.33-.19-.33-.43a4.63 4.63 0 0 0-.2-1.57c-.19-.67-.61-1.47-2.47-1.66-1.28-.15-6-.24-6.8-.24a.3.3 0 0 0-.33.33v4.19c0 1.61-.05 7.13 0 8.13.14 3.27.86 3.89 5.52 3.89a13.71 13.71 0 0 0 4.56-.52c1.24-.52 1.81-1.47 2.14-3.42.09-.53.19-.72.43-.72s.28.38.28.72a46 46 0 0 1-.62 4.61c-.33 1.23-.71 1.23-2.56 1.23-3.57 0-6.18-.09-8-.14s-3-.14-3.71-.14h-1.9c-1 0-2 .09-2.76.09-.52 0-.76-.09-.76-.38 0-.14.1-.28.38-.28a7.79 7.79 0 0 0 1.43-.19c.95-.19 1.19-1.24 1.38-2.62.24-2 .24-5.75.24-10.31zM386.72 48.8c0-7.42 0-8.75-.1-10.27s-.48-2.38-2-2.71a8.5 8.5 0 0 0-1.62-.14c-.19 0-.38-.1-.38-.29s.24-.38.76-.38c2.14 0 5.14.14 5.37.14.53 0 4.14-.14 5.61-.14 3 0 6.18.29 8.7 2.09a8.34 8.34 0 0 1 3.29 6.47c0 3.52-1.48 7-5.76 11 3.9 5 7.13 9.22 9.89 12.17 2.57 2.71 4.61 3.23 5.8 3.42a10.92 10.92 0 0 0 1.86.15c.23 0 .42.14.42.28 0 .29-.28.38-1.14.38H414c-2.67 0-3.85-.23-5.09-.9-2.05-1.09-3.71-3.42-6.42-7-2-2.62-4.23-5.8-5.18-7a.76.76 0 0 0-.62-.28l-5.85-.1c-.24 0-.33.14-.33.38v1.15c0 4.56 0 8.31.24 10.31.14 1.38.42 2.43 1.85 2.62.67.09 1.71.19 2.14.19s.38.14.38.28-.24.38-.76.38c-2.61 0-5.61-.14-5.85-.14 0 0-3 .14-4.47.14-.52 0-.76-.09-.76-.38 0-.14.1-.28.38-.28a7.79 7.79 0 0 0 1.43-.19c.95-.19 1.19-1.24 1.38-2.62.24-2 .24-5.75.24-10.31zm3.8 4.13a.61.61 0 0 0 .33.57 13.08 13.08 0 0 0 5 .76 6.15 6.15 0 0 0 3.57-.9c1.66-1.14 2.9-3.71 2.9-7.32 0-5.94-3.14-9.51-8.22-9.51a13.89 13.89 0 0 0-3.19.29.56.56 0 0 0-.38.57zM429.74 70.33c-.67-.33-.71-.52-.71-1.8 0-2.38.19-4.28.23-5 .05-.53.15-.76.38-.76s.34.14.34.52a8.55 8.55 0 0 0 .14 1.76c.71 3.52 3.85 4.85 7 4.85 4.56 0 6.79-3.28 6.79-6.32 0-3.28-1.37-5.19-5.46-8.56l-2.14-1.76c-5-4.14-6.18-7.08-6.18-10.32 0-5.09 3.8-8.56 9.84-8.56a18.19 18.19 0 0 1 4.42.48 7.79 7.79 0 0 0 1.66.24c.38 0 .48.09.48.33s-.19 1.81-.19 5c0 .76-.09 1.09-.33 1.09s-.34-.23-.39-.62a8.2 8.2 0 0 0-.61-2.37c-.29-.53-1.57-2.52-5.94-2.52-3.28 0-5.85 2-5.85 5.51 0 2.71 1.23 4.42 5.8 8l1.33 1.05c5.61 4.42 6.94 7.37 6.94 11.17a9.85 9.85 0 0 1-4 7.89 12.47 12.47 0 0 1-7.18 2 14.29 14.29 0 0 1-6.37-1.3zM474.1 57.17c0 4.56 0 8.31.23 10.31.14 1.38.43 2.43 1.86 2.62.66.09 1.71.19 2.14.19s.38.14.38.28-.24.38-.76.38c-2.62 0-5.61-.14-5.85-.14s-3.24.14-4.66.14c-.52 0-.76-.09-.76-.38 0-.14.09-.28.38-.28a7.57 7.57 0 0 0 1.42-.19c1-.19 1.19-1.24 1.38-2.62.24-2 .24-5.75.24-10.31V48.8c0-7.42 0-8.75-.09-10.27s-.57-2.43-1.62-2.66a5.85 5.85 0 0 0-1.47-.19c-.19 0-.39-.1-.39-.29s.24-.38.76-.38c1.57 0 4.57.14 4.81.14s3.23-.14 4.66-.14c.52 0 .76.1.76.38s-.19.29-.38.29a6.47 6.47 0 0 0-1.19.14c-1.29.23-1.67 1-1.76 2.71-.09 1.52-.09 2.85-.09 10.27zM511.36 57.17c0 4.56 0 8.31.24 10.31.14 1.38.43 2.43 1.86 2.62.66.09 1.71.19 2.14.19.28 0 .38.14.38.28s-.24.38-.77.38c-2.61 0-5.6-.14-5.84-.14s-3.24.14-4.66.14c-.52 0-.76-.09-.76-.38 0-.14.09-.28.38-.28a7.57 7.57 0 0 0 1.42-.19c1-.19 1.19-1.24 1.38-2.62.24-2 .24-5.75.24-10.31V37.05l-7 .1c-2.94.05-4.08.38-4.84 1.52a7.93 7.93 0 0 0-.81 1.47c-.14.39-.29.48-.48.48s-.24-.14-.24-.43c0-.47 1-4.56 1.05-4.94s.28-.91.48-.91a8.46 8.46 0 0 0 2.09.57c1.37.15 3.18.24 3.75.24h17.83a18.34 18.34 0 0 0 3.38-.24c.71-.09 1.14-.23 1.33-.23s.24.28.24.57c0 1.42-.15 4.7-.15 5.23s-.14.61-.33.61-.33-.14-.38-.8v-.53c-.14-1.42-1.28-2.52-5.84-2.61l-6-.1zM549.59 58.64a10 10 0 0 0-1.1-5c-.33-.76-6.7-11.22-8.37-13.7a13 13 0 0 0-3.23-3.51 4.5 4.5 0 0 0-2-.76c-.24 0-.48-.1-.48-.34s.19-.33.62-.33c.9 0 4.47.14 4.71.14s2.13-.14 4-.14c.52 0 .62.14.62.33s-.29.24-.72.43a1 1 0 0 0-.61.85 4 4 0 0 0 .61 1.86c.77 1.38 7.9 13.64 8.75 15 .91-2 6.95-12.41 7.9-14a4.7 4.7 0 0 0 .8-2.43c0-.66-.19-1.19-.76-1.33s-.71-.24-.71-.47.28-.29.76-.29c1.24 0 2.76.14 3.14.14s3.71-.14 4.61-.14c.33 0 .62.1.62.29s-.24.38-.62.38a4.59 4.59 0 0 0-2.19.66 9.05 9.05 0 0 0-2.52 2.43 152.29 152.29 0 0 0-9.08 15.11 11.46 11.46 0 0 0-.71 4.76v4.09c0 .76 0 2.75.14 4.75.1 1.38.52 2.43 1.95 2.62.67.09 1.71.19 2.14.19s.38.14.38.28-.24.38-.76.38c-2.61 0-5.61-.14-5.85-.14s-3.23.14-4.66.14c-.52 0-.76-.09-.76-.38 0-.14.1-.28.38-.28a7.79 7.79 0 0 0 1.41-.13c.95-.19 1.38-1.24 1.47-2.62.15-2 .15-4 .15-4.75zM611.77 34.34c10.69 0 18.68 6.75 18.68 17.83 0 10.65-7.51 19.45-19 19.45-13 0-18.45-10.13-18.45-18.69 0-7.7 5.64-18.59 18.77-18.59zm1 35.47c4.27 0 13.12-2.47 13.12-16.31 0-11.41-6.89-17.5-14.46-17.5-7.93 0-13.88 5.23-13.88 15.64 0 11.04 6.66 18.17 15.22 18.17zM652.17 48.8c0-7.42 0-8.75-.09-10.27s-.48-2.38-2.05-2.71a8.39 8.39 0 0 0-1.61-.14c-.19 0-.38-.1-.38-.29s.24-.38.76-.38c1.09 0 2.37 0 3.42.05l1.95.09c1 .05 10.6 0 11.7 0a9.94 9.94 0 0 0 2.09-.2c.28-.09.47-.28.66-.28s.29.19.29.43-.24.9-.38 2.23c0 .48-.14 2.57-.24 3.14 0 .24-.14.52-.38.52s-.33-.24-.33-.57a5 5 0 0 0-.43-1.8 3.63 3.63 0 0 0-3.23-1.53l-7.33-.14c-.28 0-.42.14-.42.52v13.09c0 .28 0 .42.33.42h8.22c1.15-.1 1.76-.24 2.19-.86.19-.23.34-.47.53-.47s.23.14.23.38-.23 1.09-.38 2.66c-.09.95-.19 2.85-.19 3.18s0 .91-.33.91-.33-.19-.33-.43a8.16 8.16 0 0 0-.29-1.71 2.87 2.87 0 0 0-2.47-1.71c-1.19-.14-6.37-.14-7.18-.14-.24 0-.33.09-.33.42v4.05c0 4.56 0 8.31.24 10.31.14 1.38.42 2.43 1.85 2.62.67.09 1.71.19 2.14.19s.38.14.38.28-.24.38-.76.38c-2.62 0-5.61-.14-5.85-.14s-3.23.14-4.66.14c-.52 0-.76-.09-.76-.38 0-.14.1-.28.38-.28a7.79 7.79 0 0 0 1.43-.19c1-.19 1.19-1.24 1.38-2.62.23-2 .23-5.75.23-10.31z"/><path class="cls-1" d="M96.55 147.94s6.26-.87 11.35-2.08c4.52-1.08 8.87-2.59 8.87-2.59l-3.23-6.27 2.83-7.79s-5.39 1.54-10.13 2.55a92.66 92.66 0 0 1-9.6 1.46zM40.39 147.94s-6.27-.87-11.35-2.08c-4.53-1.08-8.87-2.59-8.87-2.59L23.4 137l-2.84-7.79s5.39 1.54 10.13 2.55a92.63 92.63 0 0 0 9.61 1.46z"/><path d="M68.48 15.13s12.42 14 26.72 18.25A65 65 0 0 0 113.41 36a52.2 52.2 0 0 0 8.4-.59s.39 26 .39 44.71c0 31.91-16.71 53.1-31.58 67.3C77.44 160 70 162.83 68.5 163.32c0 0-8.9-3.27-22.17-15.95-14.87-14.2-31.6-34.88-31.6-67.3 0-18.33.41-44.71.41-44.71a52.36 52.36 0 0 0 8.4.59 65 65 0 0 0 18.21-2.57c14.3-4.22 26.73-18.25 26.73-18.25z" fill="#8f1028" stroke-width="1.99" stroke="#000"/><path d="M35.28 80.95h66.38v62.24H35.28z"/><path class="cls-3" d="M35.58 69.61S43.12 57.38 44 45.69c.34-4.65 0-9.8.54-14.47.69-6.23 5.92-17 5.92-17H86.5s5.23 10.74 5.93 17c.52 4.67.2 9.82.54 14.47.84 11.69 8.38 23.92 8.38 23.92z"/><path d="M43.98 85.06h48.97v64.79H43.98z"/><path class="cls-4" d="M91.8 86.21v62.49H45.13V86.21H91.8m2.31-2.3H42.83V151h51.28V83.91z"/><path d="M49.92 14.77v-3.14h37.1v3.15l-37.1-.01z"/><path d="M86.5 12.15v2.11H50.43v-2.1H86.5m1-1H49.4v4.18h38.14v-4.23z"/><path class="cls-5" d="M89.44 10.38H47.49l-1.48-3.31h44.92l-1.49 3.31zM50.45 12.15l-1.81-1.77H88.3l-1.78 1.77H50.45z"/><path d="M35.66 81.65a31.79 31.79 0 0 0-3.66-4.4 20.78 20.78 0 0 0-6.55-4.2L23 67.49h90.9l-2.39 5.57a21.82 21.82 0 0 0-6.39 4.18 21.44 21.44 0 0 0-3.49 4.34z"/><path d="M113.4 67.82l-2.14 5a22 22 0 0 0-6.38 4.2 22.39 22.39 0 0 0-3.44 4.24l-65.6.07A32 32 0 0 0 32.2 77a20.84 20.84 0 0 0-6.53-4.22l-2.13-5h89.86m1-.66H22.53l2.64 6.15a20.74 20.74 0 0 1 6.57 4.17A30.19 30.19 0 0 1 35.48 82l66.35-.07a19.54 19.54 0 0 1 3.52-4.43 22 22 0 0 1 6.41-4.17l2.64-6.15z"/><path class="cls-4" d="M42.39 103.58h52.16v3.7H42.39z"/><path d="M94.09 104v2.78H42.84V104h51.25m.92-.91H41.93v4.61H95v-4.61zM89.11 44.51c-.28-3.91 0-8.25-.45-12.18-.41-3.68-2.7-9-4-11.78A2 2 0 0 1 81.43 19a1.93 1.93 0 0 1 0-.42H55.42a2.3 2.3 0 0 1 0 .45 2 2 0 0 1-2 2 1.94 1.94 0 0 1-1.2-.42c-1.34 2.84-3.6 8.07-4 11.74-.44 3.93-.17 8.27-.45 12.18-.72 9.86-5.75 20.16-5.75 20.16h52.77s-4.97-10.32-5.68-20.18z"/><path d="M80.26 41.81a11.83 11.83 0 1 0-23.66 0H54l1.6 4.06h1.67l4.53 11.49h-2.48v3h18.4v-3h-2.63l4.32-11.43h1.89l1.6-4.08z" stroke="#fff" stroke-width=".4" fill="#fff"/><path d="M76.59 41.81a8.17 8.17 0 1 1-8.16-8.16 8.16 8.16 0 0 1 8.16 8.16z"/><path class="cls-3" d="M46.01 7.07l1.48 3.31h1.14l1.8 1.77H86.5l1.78-1.77h1.16l1.49-3.31H46.01z"/><path class="cls-4" d="M25.83 72.32l-1.79-4.17h88.86l-1.79 4.17H25.83z"/><path d="M111.39 69.14l-.94 2.19h-84l-.94-2.19h85.85m3-2H22.53l2.64 6.15h86.59l2.64-6.15z"/><path class="cls-4" d="M45.6 103.53V103c0-4.75 3.57-8.63 8-8.63A8 8 0 0 1 61 100a7.76 7.76 0 0 1 15 0 8 8 0 0 1 7.47-5.62c4.39 0 8 3.87 8 8.63v.49z"/><path d="M68.49 94.9c4.12 0 7.51 3.64 7.51 8.1 0-4.49 3.34-8.13 7.47-8.13s7.46 3.64 7.46 8.14H46.1c0-4.49 3.34-8.13 7.46-8.13S61 98.54 61 103c0-4.49 3.34-8.13 7.46-8.13m0-1A8.39 8.39 0 0 0 61 98.75a8.41 8.41 0 0 0-7.47-4.84c-4.66 0-8.45 4.09-8.45 9.12v1h46.79v-1c0-5-3.79-9.13-8.45-9.13A8.41 8.41 0 0 0 76 98.75a8.39 8.39 0 0 0-7.46-4.84z"/><path class="cls-7" d="M48.58 129.31v-25.86s0-5.61 4.93-5.61 4.92 5.61 4.92 5.61v25.86zM54.6 97.8h-2.19l-.5-5.47h3.19l-.5 5.47zM63.58 129.31v-25.86s0-5.61 4.93-5.61 4.92 5.61 4.92 5.61v25.86zM69.6 97.8h-2.19l-.5-5.47h3.19l-.5 5.47zM78.58 129.31v-25.86s0-5.61 4.93-5.61 4.92 5.61 4.92 5.61v25.86zM84.6 97.8h-2.19l-.5-5.47h3.19l-.5 5.47z"/><path d="M34.62 136.88v14.85s13.64 2.94 33.73 2.94 33.71-2.94 33.71-2.94v-14.85s-13.56 2.74-34 2.74-33.44-2.74-33.44-2.74z" stroke-linecap="round" stroke-width="1.84" stroke="#000" fill="#fff"/><path d="M59.16 151.56l-.94-.12c-.39-.05-.93-.1-1.26-.12h-.13c-.31 0-1.22-.09-1.66-.1h-.83c-.15 0-.23-.07-.22-.19v-.35l.15-.08h.44c1 0 1.23-.12 1.29-.19s.17-.44.2-.9l.33-4.07a4.74 4.74 0 0 0 0-1.55c0-.08-.15-.13-.31-.13h-.93c-.21-.13-.21-.32-.19-.53v-.1h.1a5.13 5.13 0 0 0 2.13-.55l.13-.06a.87.87 0 0 1 .34-.12h.39l-.58 7.18a1.72 1.72 0 0 0 .07 1c.15.22 1 .37 1.32.41h.31v.51l-.16.05z"/><path d="M57.8 142.47h.24l-.56 7a1.71 1.71 0 0 0 .09 1.05c.21.34 1.46.46 1.6.5v.24s0 .06-.05.06l-.93-.12c-.44-.06-1.1-.12-1.39-.14s-1.22-.1-1.66-.11h-.9v-.31s0-.06.06-.07h.42c.48 0 1.21 0 1.39-.23s.19-.46.23-1l.33-4.07a4.56 4.56 0 0 0-.06-1.61c-.05-.13-.21-.2-.42-.2H55.27c-.08-.07-.08-.19-.07-.4a5.32 5.32 0 0 0 2.18-.56 1.89 1.89 0 0 1 .41-.17m0-.25a1 1 0 0 0-.4.14l-.11.06a5.12 5.12 0 0 1-2.1.54L55 143v.2a.66.66 0 0 0 .15.61l.07.06h1a.34.34 0 0 1 .22 0 4.4 4.4 0 0 1 0 1.49l-.33 4.07a1.69 1.69 0 0 1-.16.82s-.21.15-1.21.15h-.45a.3.3 0 0 0-.28.29v.25a.29.29 0 0 0 .27.32h.9c.45 0 1.39.09 1.66.11H57c.32 0 .86.07 1.23.13l.94.11a.3.3 0 0 0 .33-.27v-.47l-.23-.08a1.34 1.34 0 0 0-.24-.05c-1-.15-1.18-.29-1.22-.35a1.62 1.62 0 0 1-.06-.9l.56-7.05v-.26h-.49zM64.26 152c-1.72 0-2.77-.95-2.74-2.36a2.91 2.91 0 0 1 1.91-2.4A2.58 2.58 0 0 1 62 145a2.19 2.19 0 0 1 2.47-2.15c1.23 0 2.43.68 2.4 2a2.6 2.6 0 0 1-1.51 2c1.08.7 1.79 1.44 1.76 2.61a2.61 2.61 0 0 1-2.75 2.5zm-.19-4.38a2.06 2.06 0 0 0-1.13 1.87 1.68 1.68 0 0 0 1.41 1.86 1.43 1.43 0 0 0 1.4-1.56c.03-1.03-.68-1.56-1.68-2.2zm.31-4.13c-.73 0-1 .78-1.06 1.2 0 .77.73 1.3 1.39 1.78a1.88 1.88 0 0 0 .82-1.59 1.22 1.22 0 0 0-1.16-1.42v-.12z"/><path d="M64.46 142.94h.09c1.17 0 2.2.69 2.17 1.89a2.54 2.54 0 0 1-1.64 2c1.16.72 1.92 1.43 1.9 2.63a2.52 2.52 0 0 1-2.63 2.38h-.08c-1.49 0-2.66-.77-2.62-2.23a2.8 2.8 0 0 1 2.06-2.36c-.8-.53-1.63-1.12-1.6-2.29a2.07 2.07 0 0 1 2.35-2m.3 3.69a2.08 2.08 0 0 0 .94-1.74 1.33 1.33 0 0 0-1.29-1.55 1.32 1.32 0 0 0-1.19 1.32c0 .88.88 1.47 1.57 2m-.37 4.82a1.57 1.57 0 0 0 1.49-1.69c0-1.12-.81-1.69-1.81-2.31a2.19 2.19 0 0 0-1.26 2 1.79 1.79 0 0 0 1.54 2m.07-8.76a2.32 2.32 0 0 0-2.6 2.26 2.62 2.62 0 0 0 1.31 2.24 3 3 0 0 0-1.77 2.42c0 1.48 1.06 2.44 2.86 2.48h.09a2.79 2.79 0 0 0 2.88-2.62 3 3 0 0 0-1.65-2.61 2.59 2.59 0 0 0 1.39-2 2.2 2.2 0 0 0-2.42-2.14zm.29 3.62c-.63-.45-1.32-1-1.31-1.65 0-.37.3-1.07.94-1.07a1.12 1.12 0 0 1 1.07 1.29 1.75 1.75 0 0 1-.7 1.43zm-.36 5.14v-.25a1.57 1.57 0 0 1-1.29-1.73 1.94 1.94 0 0 1 1-1.73c1 .61 1.59 1.1 1.57 2a1.32 1.32 0 0 1-1.24 1.45v.25zM71.37 152a.7.7 0 0 1-.53-.14.41.41 0 0 1-.09-.28 14.2 14.2 0 0 1 1.44-4.09c.38-.82 1.18-2.48 1.71-3.36h-1.81a3.75 3.75 0 0 0-1.53.19.73.73 0 0 0-.33.48 1.48 1.48 0 0 1-.09.28c-.07.2-.29.21-.58.21h-.15l-.07-.15.35-2.16 5.3-.14v.83a16.61 16.61 0 0 0-2.78 7.86c0 .33-.28.4-.76.41z"/><path d="M74.87 143v.7a16.31 16.31 0 0 0-2.78 7.85c0 .2-.12.28-.64.29h-.1c-.4 0-.5-.09-.49-.29a13.85 13.85 0 0 1 1.43-4.05 37.74 37.74 0 0 1 1.84-3.5h-2a3.78 3.78 0 0 0-1.59.22c-.38.29-.31.42-.46.81-.06.14-.24.13-.57.14l.34-2.06 5.07-.13m.24-.26h-.25l-5.07.13h-.21v.21l-.34 2.06v.3h.39c.31 0 .59 0 .7-.3a2.33 2.33 0 0 0 .09-.29.65.65 0 0 1 .29-.41 3.9 3.9 0 0 1 1.38-.17H73.8c-.53.92-1.25 2.42-1.6 3.17a14.06 14.06 0 0 0-1.45 4.15.5.5 0 0 0 .12.37.82.82 0 0 0 .62.18h.1c.33 0 .87 0 .89-.53a16.09 16.09 0 0 1 2.73-7.71V142.77zM78.07 151.54v-.51l.15-.1h.22c.32 0 1.31-.2 1.45-.42s.09-.47 0-.93l-.32-4.07a4.93 4.93 0 0 0-.29-1.52.26.26 0 0 0-.23-.09h-.1l-.52.09-.43.01c-.23-.1-.26-.28-.28-.49v-.1h.1a5.1 5.1 0 0 0 2-.88l.11-.08a.75.75 0 0 1 .34-.18h.37l.58 7.18c0 .5.09.8.22.93s.38.21 1.31.21h.37l.07.14v.37l-.16.07h-.94c-.4 0-1 .05-1.29.07h-.31c-.4 0-1.08.1-1.44.15l-.63.08h-.28z"/><path d="M80.55 142.37l.57 7.06c0 .53.09.85.26 1s1 .24 1.39.24H83.06v.31h-.94c-.44 0-1.1.06-1.39.08s-1.22.1-1.66.17c-.11 0-.58.07-.89.11v-.25-.07c0-.01 1.54-.18 1.75-.52.13-.19.11-.49.07-1l-.33-4.07a4.58 4.58 0 0 0-.31-1.58.38.38 0 0 0-.33-.14h-.13c-.26 0-.57.1-.91.16-.09 0-.11-.17-.13-.38a5.46 5.46 0 0 0 2.06-.9c.12-.08.28-.23.38-.24h.25m.23-.26h-.5a.82.82 0 0 0-.4.21l-.1.07a5.07 5.07 0 0 1-2 .87l-.2.05v.21c0 .19 0 .46.26.57H78l.4-.07a3.31 3.31 0 0 1 .49-.08h.24a4.07 4.07 0 0 1 .26 1.46l.33 4.07c0 .42.06.72 0 .84s-.3.21-1.37.37l-.24.05a.3.3 0 0 0-.23.32v.26a.3.3 0 0 0 .3.28h.3l.61-.08c.37-.05 1.05-.11 1.45-.14h.3c.31 0 .89-.06 1.28-.07h.94a.31.31 0 0 0 .29-.34V150.48h-.55c-1 0-1.17-.12-1.21-.15a1.67 1.67 0 0 1-.2-.87l-.56-7.06v-.24zM667.3 152.78a3.51 3.51 0 1 1 3.51 3.52 3.5 3.5 0 0 1-3.51-3.52zm6.46 0a3 3 0 1 0-3 3.06 2.92 2.92 0 0 0 3-3.06zm-1.2 2H672l-1.12-1.81H670v1.81h-.48v-3.92h1.71c1 0 1.39.39 1.39 1s-.54 1-1.23 1.07zm-1.84-2.19c.56 0 1.37.1 1.37-.7 0-.61-.5-.68-1-.68H670v1.38z"/></svg>